<svg width="24" height="24" viewBox="0 0 24 24" fill="none" xmlns="http://www.w3.org/2000/svg">
<g id="mdi:bell-ring-outline">
<path id="Vector" d="M10.0703 21H14.0703C14.0703 21.5304 13.8596 22.0391 13.4845 22.4142C13.1095 22.7893 12.6008 23 12.0703 23C11.5399 23 11.0312 22.7893 10.6561 22.4142C10.281 22.0391 10.0703 21.5304 10.0703 21ZM21.0703 19V20H3.07033V19L5.07033 17V11C5.07033 7.9 7.10033 5.17 10.0703 4.29V4C10.0703 3.46957 10.281 2.96086 10.6561 2.58579C11.0312 2.21071 11.5399 2 12.0703 2C12.6008 2 13.1095 2.21071 13.4845 2.58579C13.8596 2.96086 14.0703 3.46957 14.0703 4V4.29C17.0403 5.17 19.0703 7.9 19.0703 11V17L21.0703 19ZM17.0703 11C17.0703 9.67392 16.5435 8.40215 15.6059 7.46447C14.6682 6.52678 13.3964 6 12.0703 6C10.7442 6 9.47248 6.52678 8.5348 7.46447C7.59712 8.40215 7.07033 9.67392 7.07033 11V18H17.0703V11ZM19.8203 3.19L18.4003 4.61C19.2461 5.44542 19.9176 6.44042 20.376 7.53732C20.8343 8.63422 21.0703 9.8112 21.0703 11H23.0703C23.0703 8.07 21.9103 5.25 19.8203 3.19ZM1.07033 11H3.07033C3.07033 8.6 4.03033 6.3 5.74033 4.61L4.32033 3.19C3.28821 4.21157 2.4694 5.42807 1.91147 6.76881C1.35355 8.10955 1.06763 9.54781 1.07033 11Z" fill="#344054"/>
</g>
</svg>
