<svg width="30" height="30" viewBox="0 0 30 30" fill="none" xmlns="http://www.w3.org/2000/svg">
<path id="Vector" d="M29.5385 20.2658C28.2798 18.1924 27.6113 15.2164 27.6113 11.6654C27.6113 8.57152 26.3279 5.60439 24.0435 3.41671C21.7591 1.22903 18.6607 0 15.4301 0C12.1994 0 9.10105 1.22903 6.81663 3.41671C4.5322 5.60439 3.24883 8.57152 3.24883 11.6654C3.24883 15.2177 2.58321 18.1924 1.32448 20.2658C1.06764 20.6887 0.931487 21.1689 0.929705 21.6581C0.927923 22.1473 1.06057 22.6284 1.31433 23.053C1.56649 23.4778 1.93248 23.8305 2.37452 24.0746C2.81656 24.3188 3.31862 24.4455 3.82889 24.4417H9.07552C9.21941 25.9605 9.95113 27.3728 11.1269 28.4013C12.3027 29.4298 13.8376 30 15.4301 30C17.0225 30 18.5574 29.4298 19.7332 28.4013C20.909 27.3728 21.6407 25.9605 21.7846 24.4417H27.0312C27.5408 24.4447 28.0419 24.3177 28.4831 24.0736C28.9243 23.8295 29.2896 23.4772 29.5414 23.053C29.7963 22.629 29.9302 22.1482 29.9297 21.659C29.9292 21.1698 29.7943 20.6893 29.5385 20.2658ZM15.4301 26.6637C14.7615 26.6638 14.1133 26.4427 13.5954 26.0378C13.0774 25.6329 12.7215 25.0691 12.5878 24.4417H18.2723C18.1386 25.0691 17.7827 25.6329 17.2647 26.0378C16.7468 26.4427 16.0987 26.6638 15.4301 26.6637ZM4.79469 21.1088C6.07806 18.609 6.72918 15.4344 6.72918 11.6654C6.72918 9.45547 7.64588 7.33609 9.27761 5.77347C10.9093 4.21084 13.1224 3.33296 15.4301 3.33296C17.7377 3.33296 19.9508 4.21084 21.5825 5.77347C23.2142 7.33609 24.1309 9.45547 24.1309 11.6654C24.1309 15.433 24.7806 18.609 26.064 21.1088H4.79469Z" fill="#003937"/>
</svg>
