<svg width="37" height="140" viewBox="0 0 37 140" fill="none" xmlns="http://www.w3.org/2000/svg">
<g id="Button - Next slide">
<rect width="139.221" height="36.6371" transform="translate(36.6367) rotate(90)" fill="#F5F5F5" fill-opacity="0.83"/>
<g id="pseudo">
<mask id="path-1-inside-1_83_7217" fill="white">
<path d="M25.577 68.5731C26.1493 69.1454 26.1493 70.0733 25.577 70.6456L19.3595 76.8632C18.7872 77.4355 17.8593 77.4355 17.287 76.8632L11.0695 70.6456C10.4971 70.0733 10.4971 69.1454 11.0695 68.5731L17.287 62.3556C17.8593 61.7833 18.7872 61.7833 19.3595 62.3556L25.577 68.5731Z"/>
</mask>
<path d="M27.6495 66.5006C29.3665 68.2175 29.3665 71.0012 27.6495 72.7181L23.5045 76.8632C21.7876 78.5801 19.0039 78.5801 17.287 76.8632L16.2507 75.8269C16.2507 75.8269 16.7147 75.363 17.287 74.7907L22.4683 69.6094L27.6495 66.5006ZM10.0332 69.6094L18.3232 61.3193L10.0332 69.6094ZM17.287 62.3556C19.0039 60.6387 21.7876 60.6387 23.5045 62.3556L27.6495 66.5006C29.3665 68.2175 29.3665 71.0012 27.6495 72.7181L22.4683 69.6094L17.287 64.4281C16.7147 63.8558 16.2507 63.3918 16.2507 63.3918L17.287 62.3556ZM18.3232 77.8994L10.0332 69.6094L18.3232 77.8994Z" fill="black" mask="url(#path-1-inside-1_83_7217)"/>
</g>
</g>
</svg>
