<svg width="37" height="140" viewBox="0 0 37 140" fill="none" xmlns="http://www.w3.org/2000/svg">
<g id="Button - Next slide">
<rect width="139.221" height="36.6371" transform="translate(0 139.221) rotate(-90)" fill="#F5F5F5" fill-opacity="0.83"/>
<g id="pseudo">
<mask id="path-1-inside-1_83_7215" fill="white">
<path d="M11.0597 70.6478C10.4874 70.0755 10.4874 69.1476 11.0597 68.5753L17.2772 62.3578C17.8495 61.7855 18.7774 61.7855 19.3497 62.3578L25.5673 68.5753C26.1396 69.1476 26.1396 70.0755 25.5673 70.6478L19.3497 76.8654C18.7774 77.4377 17.8495 77.4377 17.2772 76.8654L11.0597 70.6478Z"/>
</mask>
<path d="M8.98718 72.7203C7.27026 71.0034 7.27026 68.2197 8.98718 66.5028L13.1322 62.3578C14.8491 60.6409 17.6328 60.6409 19.3497 62.3578L20.386 63.394C20.386 63.394 19.922 63.858 19.3497 64.4303L14.1685 69.6116L8.98718 72.7203ZM26.6035 69.6116L18.3135 77.9016L26.6035 69.6116ZM19.3497 76.8654C17.6328 78.5823 14.8491 78.5823 13.1322 76.8654L8.98718 72.7203C7.27026 71.0034 7.27026 68.2197 8.98718 66.5028L14.1685 69.6116L19.3497 74.7928C19.922 75.3652 20.386 75.8291 20.386 75.8291L19.3497 76.8654ZM18.3135 61.3215L26.6035 69.6116L18.3135 61.3215Z" fill="black" mask="url(#path-1-inside-1_83_7215)"/>
</g>
</g>
</svg>
