<svg width="27" height="27" viewBox="0 0 27 27" fill="none" xmlns="http://www.w3.org/2000/svg">
<g id="mdi:eye-outline" clip-path="url(#clip0_160_13627)">
<path id="Vector" d="M21.3529 21.7784C21.9948 21.7784 22.6104 22.0334 23.0643 22.4873C23.5182 22.9412 23.7732 23.5568 23.7732 24.1987C23.7732 24.8406 23.5182 25.4563 23.0643 25.9102C22.6104 26.3641 21.9948 26.6191 21.3529 26.6191C20.711 26.6191 20.0953 26.3641 19.6414 25.9102C19.1875 25.4563 18.9325 24.8406 18.9325 24.1987C18.9325 22.8554 20.0096 21.7784 21.3529 21.7784ZM1.99023 2.41577H5.94747L7.08503 4.8361H24.9834C25.3043 4.8361 25.6121 4.9636 25.8391 5.19055C26.066 5.4175 26.1935 5.72531 26.1935 6.04626C26.1935 6.25199 26.133 6.45772 26.0483 6.65135L21.7159 14.4811C21.3045 15.2193 20.5057 15.7276 19.5981 15.7276H10.5824L9.49325 17.7001L9.45695 17.8454C9.45695 17.9256 9.48882 18.0026 9.54556 18.0593C9.6023 18.116 9.67925 18.1479 9.75949 18.1479H23.7732V20.5682H9.25122C8.60931 20.5682 7.99369 20.3132 7.53979 19.8593C7.08589 19.4054 6.83089 18.7898 6.83089 18.1479C6.83089 17.7243 6.93981 17.325 7.12133 16.9861L8.76715 14.0212L4.41056 4.8361H1.99023V2.41577ZM9.25122 21.7784C9.89313 21.7784 10.5088 22.0334 10.9627 22.4873C11.4166 22.9412 11.6715 23.5568 11.6715 24.1987C11.6715 24.8406 11.4166 25.4563 10.9627 25.9102C10.5088 26.3641 9.89313 26.6191 9.25122 26.6191C8.60931 26.6191 7.99369 26.3641 7.53979 25.9102C7.08589 25.4563 6.83089 24.8406 6.83089 24.1987C6.83089 22.8554 7.90794 21.7784 9.25122 21.7784ZM20.1427 13.3073L23.507 7.25643H8.21048L11.0665 13.3073H20.1427Z" fill="white"/>
</g>
<defs>
<clipPath id="clip0_160_13627">
<rect width="26.6236" height="26.6236" fill="white" transform="translate(0.363281 -0.00415039)"/>
</clipPath>
</defs>
</svg>
