<svg width="52" height="52" viewBox="0 0 52 52" fill="none" xmlns="http://www.w3.org/2000/svg">
<g id="Group 909">
<rect id="Rectangle 102" width="52" height="52" rx="15.9289" fill="#033432"/>
<g id="Group 908">
<path id="Vector" d="M21.4625 37.5652C22.501 37.5652 23.3429 36.7233 23.3429 35.6848C23.3429 34.6462 22.501 33.8043 21.4625 33.8043C20.4239 33.8043 19.582 34.6462 19.582 35.6848C19.582 36.7233 20.4239 37.5652 21.4625 37.5652Z" fill="#FFEFDC"/>
<path id="Vector_2" d="M34.6265 37.5652C35.6651 37.5652 36.507 36.7233 36.507 35.6848C36.507 34.6462 35.6651 33.8043 34.6265 33.8043C33.588 33.8043 32.7461 34.6462 32.7461 35.6848C32.7461 36.7233 33.588 37.5652 34.6265 37.5652Z" fill="#FFEFDC"/>
<path id="Vector_3" d="M37.9627 18.3366C37.8307 18.175 37.6642 18.0449 37.4756 17.9556C37.2869 17.8664 37.0808 17.8203 36.8721 17.8206H18.9874L18.6272 15.7769C18.5888 15.5592 18.4749 15.3619 18.3055 15.2199C18.1362 15.0778 17.9221 15 17.7011 15H13.9402C13.6909 15 13.4517 15.0991 13.2754 15.2754C13.0991 15.4517 13 15.6909 13 15.9402C13 16.1896 13.0991 16.4287 13.2754 16.605C13.4517 16.7814 13.6909 16.8804 13.9402 16.8804H16.9125L19.5956 32.0873C19.634 32.305 19.7479 32.5022 19.9173 32.6442C20.0867 32.7863 20.3007 32.8642 20.5217 32.8641H35.5652C35.8146 32.8641 36.0537 32.7651 36.23 32.5887C36.4064 32.4124 36.5054 32.1733 36.5054 31.9239C36.5054 31.6745 36.4064 31.4354 36.23 31.2591C36.0537 31.0827 35.8146 30.9837 35.5652 30.9837H21.3103L20.9789 29.1032H35.1797C35.5058 29.1028 35.8217 28.9898 36.074 28.7832C36.3263 28.5767 36.4994 28.2893 36.5642 27.9697L38.2566 19.5078C38.2973 19.303 38.2921 19.0917 38.2413 18.8891C38.1905 18.6866 38.0954 18.4979 37.9627 18.3366Z" fill="#FFEFDC"/>
</g>
</g>
</svg>
