<svg width="26" height="28" viewBox="0 0 26 28" fill="none" xmlns="http://www.w3.org/2000/svg">
<path id="Vector" d="M25.0101 27.0389C24.3886 27.644 23.5456 27.984 22.6666 27.984C21.7877 27.984 20.9447 27.644 20.3232 27.0389L13.0014 18.8913L5.67959 27.0362C5.37276 27.3399 5.00721 27.5814 4.60403 27.7468C4.20086 27.9122 3.76804 27.9982 3.33053 28C2.89303 28.0017 2.4595 27.9191 2.05496 27.7569C1.65041 27.5947 1.28286 27.3561 0.973491 27.0549C0.664126 26.7537 0.419074 26.3958 0.252471 26.002C0.0858667 25.6081 0.0010077 25.186 0.00278917 24.7601C0.00457065 24.3341 0.0929568 23.9127 0.26285 23.5202C0.432742 23.1277 0.68078 22.7718 0.992654 22.473L8.60997 14.0027L0.989892 5.52698C0.678018 5.22825 0.429981 4.87235 0.260088 4.47982C0.0901951 4.08728 0.00180895 3.66589 2.7478e-05 3.23993C-0.001754 2.81397 0.083105 2.39189 0.249709 1.99802C0.416313 1.60416 0.661364 1.2463 0.970729 0.945105C1.28009 0.643906 1.64765 0.405324 2.05219 0.243117C2.45674 0.0809113 2.89027 -0.0017077 3.32777 2.67527e-05C3.76528 0.00176121 4.1981 0.0878143 4.60127 0.253223C5.00445 0.418631 5.37 0.660121 5.67683 0.963763L13.0014 9.1141L20.3232 0.963763C20.63 0.660121 20.9956 0.418631 21.3987 0.253223C21.8019 0.0878143 22.2347 0.00176121 22.6722 2.67527e-05C23.1097 -0.0017077 23.5433 0.0809113 23.9478 0.243117C24.3524 0.405324 24.7199 0.643906 25.0293 0.945105C25.3386 1.2463 25.5837 1.60416 25.7503 1.99802C25.9169 2.39189 26.0018 2.81397 26 3.23993C25.9982 3.66589 25.9098 4.08728 25.7399 4.47982C25.57 4.87235 25.322 5.22825 25.0101 5.52698L17.3928 14.0027L25.0101 22.473C25.3183 22.7727 25.5627 23.1286 25.7295 23.5203C25.8963 23.912 25.9821 24.3319 25.9821 24.756C25.9821 25.18 25.8963 25.5999 25.7295 25.9916C25.5627 26.3834 25.3183 26.7392 25.0101 27.0389Z" fill="#D4D4D4"/>
</svg>
