<svg width="36" height="36" viewBox="0 0 36 36" fill="none" xmlns="http://www.w3.org/2000/svg">
<g id="Emoji">
<path id="Vector" d="M19 36C9.61116 36 2 28.3888 2 19C2 9.61116 9.61116 2 19 2C28.3888 2 36 9.61116 36 19C36 28.3888 28.3888 36 19 36Z" fill="#FFCC4D"/>
<path id="Vector_2" d="M18 28.5C16.8954 28.5 16 27.3807 16 26C16 24.6193 16.8954 23.5 18 23.5C19.1046 23.5 20 24.6193 20 26C20 27.3807 19.1046 28.5 18 28.5Z" fill="#664500"/>
<path id="Vector_3" d="M27.8918 21.3828C28.0738 21.3828 28.2588 21.3328 28.4238 21.2288C28.8908 20.9348 29.0308 20.3178 28.7368 19.8498C27.8208 18.3968 25.0358 15.9118 21.0468 16.8878C20.5108 17.0188 20.1828 17.5608 20.3138 18.0968C20.4458 18.6328 20.9898 18.9588 21.5228 18.8298C25.1268 17.9478 27.0248 20.8858 27.0438 20.9158C27.2348 21.2178 27.5598 21.3828 27.8918 21.3828ZM15.9188 17.6408C16.2088 17.6408 16.4948 17.5158 16.6928 17.2748C17.0428 16.8478 16.9808 16.2168 16.5528 15.8668C13.3768 13.2628 9.79081 14.3048 8.33781 15.2208C7.87081 15.5148 7.73081 16.1328 8.02581 16.5998C8.31881 17.0648 8.93381 17.2068 9.40181 16.9148C9.53981 16.8308 12.4538 15.0918 15.2858 17.4138C15.4718 17.5668 15.6958 17.6408 15.9188 17.6408Z" fill="#664500"/>
<path id="Vector_4" d="M22.6532 31.273C22.7212 31.273 22.7902 31.264 22.8582 31.245C23.2562 31.132 23.4882 30.718 23.3752 30.319C22.9382 28.779 23.1172 27.29 23.8652 26.233C24.3622 25.531 25.0702 25.102 25.8082 25.055C26.2222 25.03 26.5362 24.673 26.5102 24.26C26.4842 23.847 26.1292 23.509 25.7152 23.559C24.5222 23.633 23.4022 24.292 22.6422 25.366C21.6312 26.795 21.3722 28.749 21.9332 30.727C22.0262 31.058 22.3272 31.273 22.6532 31.273ZM11.6162 28.212C11.7582 28.212 11.9012 28.172 12.0282 28.088C13.1952 27.318 13.8482 25.971 13.8202 24.393C13.7912 22.758 13.0112 21.24 11.8362 20.524C11.4832 20.308 11.0222 20.42 10.8062 20.775C10.5902 21.129 10.7022 21.589 11.0572 21.805C11.7922 22.253 12.3012 23.304 12.3212 24.419C12.3412 25.474 11.9322 26.355 11.2032 26.836C10.8572 27.064 10.7622 27.529 10.9902 27.875C11.1342 28.094 11.3722 28.212 11.6162 28.212Z" fill="#E2A62D"/>
<path id="Vector_5" d="M18.8238 2.7201C18.8668 2.6711 18.9338 2.6441 19.0128 2.6291C19.0128 2.6291 34.9368 -0.393905 35.6258 0.214095C36.3138 0.823095 35.2628 16.9981 35.2628 16.9981C35.2578 17.0791 35.2398 17.1481 35.1958 17.1971C34.5918 17.8811 30.4378 15.1931 25.9168 11.1961C21.3948 7.1981 18.2198 3.4041 18.8238 2.7201Z" fill="#DD2E44"/>
<path id="Vector_6" d="M35.6495 0.271125C35.6645 0.301125 35.6775 0.342125 35.6875 0.394125C35.5285 1.76513 33.9925 13.0461 33.0355 16.5721C31.5995 15.7691 30.1405 14.6781 28.4265 13.3191C29.8825 10.6541 34.8405 0.146125 35.6495 0.271125Z" fill="#EA596E"/>
<path id="Vector_7" d="M6.09572 29.2289L16.6687 27.9259C17.7987 27.8239 19.7857 27.8139 19.6837 26.0239C19.5907 24.4009 17.6437 24.6509 16.2047 24.8639L5.56672 26.6379L6.09572 29.2289Z" fill="#3B88C3"/>
<path id="Vector_8" d="M5.57031 26.639L9.79231 25.915C10.2863 25.826 10.7263 26.562 10.7483 27.341C10.7733 28.207 10.5213 28.645 10.0223 28.747L5.87831 29.259L5.57031 26.639Z" fill="#88C9F9"/>
<path id="Vector_9" d="M1.08162 26.3412L3.70362 28.7522L8.39062 23.6552L5.76862 21.2442C4.40762 19.9922 2.26963 20.0822 1.01763 21.4432L0.882624 21.5902C-0.368377 22.9522 -0.279375 25.0892 1.08162 26.3412Z" fill="#3B88C3"/>
<path id="Vector_10" d="M3.70418 28.7534C2.57802 27.7179 2.71418 25.7376 4.0083 24.3301C5.30242 22.9226 7.26444 22.621 8.3906 23.6564C9.51676 24.6919 9.3806 26.6722 8.08648 28.0797C6.79236 29.4872 4.83033 29.7888 3.70418 28.7534Z" fill="#88C9F9"/>
<path id="Vector_11" d="M4.64544 27.7338C4.08236 27.216 4.25529 26.1118 5.03168 25.2674C5.80808 24.423 6.89394 24.1581 7.45702 24.6759C8.0201 25.1936 7.84717 26.2978 7.07077 27.1422C6.29437 27.9866 5.20851 28.2515 4.64544 27.7338Z" fill="#226699"/>
<path id="Vector_12" d="M33.5 35C32.6716 35 32 34.3284 32 33.5C32 32.6716 32.6716 32 33.5 32C34.3284 32 35 32.6716 35 33.5C35 34.3284 34.3284 35 33.5 35Z" fill="#55ACEE"/>
<path id="Vector_13" d="M7 4C5.89543 4 5 3.10457 5 2C5 0.89543 5.89543 0 7 0C8.10457 0 9 0.89543 9 2C9 3.10457 8.10457 4 7 4Z" fill="#55ACEE"/>
<path id="Vector_14" d="M31.1339 29.246L33.4719 23.63L35.5859 29.675L31.1339 29.246ZM9.99794 5L13.9979 6L12.9979 2L9.99794 5Z" fill="#EA596E"/>
<path id="Vector_15" d="M4 13L-0.000999451 7.999L2.999 6L4 13Z" fill="#77B255"/>
</g>
</svg>
