<svg width="36" height="36" viewBox="0 0 36 36" fill="none" xmlns="http://www.w3.org/2000/svg">
<g id="Emoji">
<path id="Vector" d="M17 36C26.3888 36 34 28.3888 34 19C34 9.61116 26.3888 2 17 2C7.61116 2 0 9.61116 0 19C0 28.3888 7.61116 36 17 36Z" fill="#FFCC4D"/>
<path id="Vector_2" d="M18 28.5C19.1046 28.5 20 27.3807 20 26C20 24.6193 19.1046 23.5 18 23.5C16.8954 23.5 16 24.6193 16 26C16 27.3807 16.8954 28.5 18 28.5Z" fill="#664500"/>
<path id="Vector_3" d="M8.11209 21.3831C7.93009 21.3831 7.74509 21.3331 7.58009 21.2291C7.11309 20.9351 6.97309 20.3181 7.26709 19.8501C8.18309 18.3971 10.9681 15.9121 14.9571 16.8881C15.4931 17.0191 15.8211 17.5611 15.6901 18.0971C15.5581 18.6331 15.0141 18.9591 14.4811 18.8301C10.8771 17.9481 8.97909 20.8861 8.96009 20.9161C8.76909 21.2181 8.44409 21.3831 8.11209 21.3831ZM20.0851 17.6411C19.7951 17.6411 19.5091 17.5161 19.3111 17.2751C18.9611 16.8481 19.0231 16.2171 19.4511 15.8671C22.6271 13.2631 26.2131 14.3051 27.6661 15.2211C28.1331 15.5151 28.2731 16.1331 27.9781 16.6001C27.6851 17.0651 27.0701 17.2071 26.6021 16.9151C26.4641 16.8311 23.5501 15.0921 20.7181 17.4141C20.5321 17.5671 20.3081 17.6411 20.0851 17.6411Z" fill="#664500"/>
<path id="Vector_4" d="M13.3468 31.273C13.2788 31.273 13.2098 31.264 13.1418 31.245C12.7438 31.132 12.5118 30.718 12.6248 30.319C13.0618 28.779 12.8828 27.29 12.1348 26.233C11.6378 25.531 10.9298 25.102 10.1918 25.055C9.77779 25.03 9.46379 24.673 9.48979 24.26C9.51579 23.847 9.87079 23.509 10.2848 23.559C11.4778 23.633 12.5978 24.292 13.3578 25.366C14.3688 26.795 14.6278 28.749 14.0668 30.727C13.9738 31.058 13.6728 31.273 13.3468 31.273ZM24.3838 28.212C24.2418 28.212 24.0988 28.172 23.9718 28.088C22.8048 27.318 22.1518 25.971 22.1798 24.393C22.2088 22.758 22.9888 21.24 24.1638 20.524C24.5168 20.308 24.9778 20.42 25.1938 20.775C25.4098 21.129 25.2978 21.589 24.9428 21.805C24.2078 22.253 23.6988 23.304 23.6788 24.419C23.6588 25.474 24.0678 26.355 24.7968 26.836C25.1428 27.064 25.2378 27.529 25.0098 27.875C24.8658 28.094 24.6278 28.212 24.3838 28.212Z" fill="#E2A62D"/>
<path id="Vector_5" d="M17.1801 2.7201C17.1371 2.6711 17.0701 2.6441 16.9911 2.6291C16.9911 2.6291 1.0671 -0.393905 0.378099 0.214095C-0.309901 0.823095 0.741099 16.9981 0.741099 16.9981C0.746099 17.0791 0.764099 17.1481 0.808099 17.1971C1.4121 17.8811 5.5661 15.1931 10.0871 11.1961C14.6091 7.1981 17.7841 3.4041 17.1801 2.7201Z" fill="#DD2E44"/>
<path id="Vector_6" d="M0.3505 0.270881C0.3355 0.300881 0.3225 0.341881 0.3125 0.393881C0.4715 1.76488 2.0075 13.0459 2.9645 16.5719C4.4005 15.7689 5.8595 14.6779 7.5735 13.3189C6.1175 10.6539 1.1595 0.145881 0.3505 0.270881Z" fill="#EA596E"/>
<path id="Vector_7" d="M29.9004 29.2289L19.3274 27.9259C18.1974 27.8239 16.2104 27.8139 16.3124 26.0239C16.4054 24.4009 18.3524 24.6509 19.7914 24.8639L30.4294 26.6379L29.9004 29.2289Z" fill="#3B88C3"/>
<path id="Vector_8" d="M30.4297 26.639L26.2077 25.915C25.7137 25.826 25.2737 26.562 25.2517 27.341C25.2267 28.207 25.4787 28.645 25.9777 28.747L30.1217 29.259L30.4297 26.639Z" fill="#88C9F9"/>
<path id="Vector_9" d="M34.9184 26.341L32.2964 28.752L27.6094 23.655L30.2314 21.244C31.5924 19.992 33.7304 20.082 34.9824 21.443L35.1174 21.59C36.3684 22.952 36.2794 25.089 34.9184 26.341Z" fill="#3B88C3"/>
<path id="Vector_10" d="M32.2958 28.7534C33.422 27.7179 33.2858 25.7376 31.9917 24.3301C30.6976 22.9226 28.7356 22.621 27.6094 23.6564C26.4832 24.6919 26.6194 26.6722 27.9135 28.0797C29.2076 29.4872 31.1697 29.7888 32.2958 28.7534Z" fill="#88C9F9"/>
<path id="Vector_11" d="M31.3585 27.7338C31.9215 27.216 31.7486 26.1118 30.9722 25.2674C30.1958 24.423 29.11 24.1581 28.5469 24.6759C27.9838 25.1936 28.1567 26.2978 28.9331 27.1422C29.7095 27.9866 30.7954 28.2515 31.3585 27.7338Z" fill="#226699"/>
<path id="Vector_12" d="M2.5 35C3.32843 35 4 34.3284 4 33.5C4 32.6716 3.32843 32 2.5 32C1.67157 32 1 32.6716 1 33.5C1 34.3284 1.67157 35 2.5 35Z" fill="#55ACEE"/>
<path id="Vector_13" d="M29 4C30.1046 4 31 3.10457 31 2C31 0.89543 30.1046 0 29 0C27.8954 0 27 0.89543 27 2C27 3.10457 27.8954 4 29 4Z" fill="#55ACEE"/>
<path id="Vector_14" d="M4.86216 29.246L2.52416 23.63L0.410156 29.675L4.86216 29.246ZM25.9982 5L21.9982 6L22.9982 2L25.9982 5Z" fill="#EA596E"/>
<path id="Vector_15" d="M32 13L36.001 7.999L33.001 6L32 13Z" fill="#77B255"/>
</g>
</svg>
