<svg width="43" height="36" viewBox="0 0 43 36" fill="none" xmlns="http://www.w3.org/2000/svg">
<g id="Component 43">
<path id="Vector" d="M31.0188 0C27.4864 0 24.3899 1.53935 22.064 4.45173C21.7537 4.84014 21.4771 5.22873 21.2321 5.60507C20.987 5.22865 20.7104 4.84014 20.4003 4.45173C18.0743 1.53935 14.9778 0 11.4454 0C4.77258 0 0 5.46055 0 12.0129C0 19.5052 6.28312 26.5664 20.3726 34.9083C20.6368 35.0646 20.9344 35.1429 21.2321 35.1429C21.5297 35.1429 21.8275 35.0648 22.0917 34.9084C36.1812 26.5666 42.4643 19.5054 42.4643 12.013C42.4643 5.46404 37.6955 0 31.0188 0ZM34.764 21.3422C31.8308 24.5409 27.3981 27.909 21.2321 31.622C15.0661 27.909 10.6335 24.5409 7.7002 21.3422C4.7511 18.1263 3.31752 15.0746 3.31752 12.013C3.31752 7.29519 6.5798 3.24227 11.4454 3.24227C13.9233 3.24227 16.0361 4.2952 17.7251 6.37189C19.0756 8.03266 19.6446 9.74758 19.6488 9.75982C19.8647 10.437 20.5063 10.8983 21.2321 10.8983C21.958 10.8983 22.5996 10.4371 22.8157 9.75982C22.821 9.74343 23.373 8.08201 24.679 6.44662C26.3772 4.32033 28.5102 3.2422 31.0188 3.2422C35.8895 3.2422 39.1468 7.29901 39.1468 12.0129C39.1468 15.0746 37.7131 18.1262 34.764 21.3422Z" fill="#033432"/>
</g>
</svg>
