<svg width="24" height="24" viewBox="0 0 24 24" fill="none" xmlns="http://www.w3.org/2000/svg">
<g id="Emoji">
<path id="Vector" d="M23.5398 10.5127L17.2581 8.18753L14.9125 0.499765C14.8221 0.203294 14.5476 0 14.2377 0C13.9278 0 13.6532 0.203294 13.5628 0.499765L11.2179 8.18753L4.93555 10.5127C4.65814 10.6158 4.47461 10.8791 4.47461 11.1748C4.47461 11.4699 4.65814 11.7346 4.93555 11.8369L11.2144 14.1614L13.5607 22.0835C13.6497 22.3828 13.925 22.5882 14.2377 22.5882C14.5497 22.5882 14.8257 22.3828 14.9146 22.0828L17.261 14.1607L23.5405 11.8362C23.8165 11.7346 24.0007 11.4706 24.0007 11.1748C24.0007 10.8798 23.8165 10.6158 23.5398 10.5127Z" fill="#FFAC33"/>
<path id="Vector_2" d="M9.42141 18.2781L7.788 17.6738L7.15271 15.3444C7.06941 15.0366 6.79059 14.8235 6.47224 14.8235C6.15388 14.8235 5.87506 15.0366 5.79106 15.3437L5.15576 17.6731L3.52306 18.2773C3.24565 18.3797 3.06212 18.6444 3.06212 18.9395C3.06212 19.2345 3.24565 19.4992 3.52306 19.6016L5.14729 20.2037L5.78753 22.7604C5.86659 23.0738 6.14824 23.2941 6.47224 23.2941C6.79624 23.2941 7.07788 23.0738 7.15694 22.7597L7.79718 20.203L9.42141 19.6009C9.69882 19.4992 9.88235 19.2345 9.88235 18.9395C9.88235 18.6444 9.69882 18.3797 9.42141 18.2781ZM6.35929 2.98653L4.69059 2.36888L4.07224 0.699466C3.96988 0.422055 3.70588 0.238525 3.41012 0.238525C3.11506 0.238525 2.85106 0.422055 2.748 0.699466L2.13035 2.36888L0.460941 2.98653C0.183529 3.08958 0 3.35358 0 3.64864C0 3.9437 0.183529 4.20841 0.460941 4.31076L2.13035 4.92841L2.748 6.59782C2.85106 6.87523 3.11506 7.05876 3.41012 7.05876C3.70518 7.05876 3.96918 6.87523 4.07224 6.59782L4.68988 4.92841L6.35929 4.31076C6.63671 4.2077 6.82024 3.9437 6.82024 3.64864C6.82024 3.35358 6.63671 3.08958 6.35929 2.98653Z" fill="#FFCC4D"/>
</g>
</svg>
